<svg width="429.00000000000006" height="56.906052808979624" viewBox="0 0 370.00000000000006 49.079812445973104" class="looka-1j8o68f"><defs id="SvgjsDefs1218"></defs><g id="SvgjsG1219" featurekey="UFHKJ9-0" transform="matrix(0.11413351768571445,0,0,0.11413351768571445,-3.5256998863192828,-3.9960428396369045)" fill="#fff"><g xmlns="http://www.w3.org/2000/svg"><path fill="#fff" d="M172.483,250.458l86.635,24.991c0.127,0.037,0.255,0.07,0.384,0.099c0,0.001,0,0.001,0,0.001   c0.004,0,0.008,0.001,0.011,0.002c0.003-0.001,0.006,0.002,0.009,0.002c0.425,0.093,0.854,0.139,1.283,0.139   c0.016,0,0.032,0,0.049,0c0.002,0,0.003,0,0.005,0c0.572-0.005,1.148-0.093,1.708-0.265c0.011-0.001,0.005-0.001,0.006-0.002   c0.004,0,0.005-0.002,0.007-0.002c0.025-0.008,0.052-0.016,0.077-0.024l86.655-27.995c2.477-0.8,4.155-3.106,4.155-5.709v-104.53   c0-0.027,0-0.054,0-0.08c-0.029-2.604-1.735-4.893-4.223-5.664l-68.748-21.325l-20.49-31.751V41.012c0-3.313-2.687-6-6-6   s-6,2.687-6,6V72.54c-0.361,0.323-0.687,0.693-0.965,1.104l-30.584,45.08l-44.208,14.732c-2.454,0.818-4.106,3.116-4.103,5.699   v105.539C168.146,247.366,169.915,249.717,172.483,250.458z M260.739,159.849l-27.305-8.509l48.551-16.809l9.663,14.973   L260.739,159.849z M266.805,170.473l28.074-9.396v91.301l-28.074,9.069V170.473z M341.467,237.327l-34.588,11.174v-91.44   l34.588-11.576V237.327z M303.393,145.573l-9.733-15.083l5.712-1.978l28.543,8.854L303.393,145.573z M251.881,87.883l10.76,16.672   l-0.059-0.018c-1.197-0.372-2.482-0.359-3.675,0.038l-23.712,7.902L251.881,87.883z M260.87,116.57l11.908,3.694l3.625,5.617   l-59.056,20.445l-23.65-7.37L260.87,116.57z M180.146,147.302l74.659,23.266v91.147l-74.659-21.537V147.302z"></path><path fill="#fff" d="M231.369,172.181l-26.156-8.084c-2.637-0.817-5.438,0.663-6.253,3.3c-0.815,2.639,0.662,5.438,3.3,6.253   l26.156,8.084c0.492,0.152,0.989,0.225,1.478,0.225c2.135,0,4.112-1.378,4.775-3.525   C235.484,175.796,234.007,172.997,231.369,172.181z"></path><path fill="#fff" d="M464.136,274.342l-102.024-20.147c-1.255-0.245-2.542-0.063-3.679,0.474l-137.086,43.204l-0.229-13.714   c-0.26-7.536-8.836-11.694-8.836-11.694l-94.593-25.433l-71.725,25.432c-11.955,14.812-15.073,100.83-15.073,100.83   c0,5.719,3.118,7.018,3.118,7.018l0.942,0.433v49.396l1.882,1.644c0.98,0.855,24.681,21.037,88.484,32.188   c1.223,0.392,3.882,1.06,7.802,1.06c3.61,0,8.289-0.566,13.899-2.436l18.063-7.528c3.276-1.372,5.412-4.552,5.443-8.096   c0.167-17.357,3.87-39.539,13.741-45.182l16.069-7.305c2.665-0.909,3.766-0.249,4.134-0.028c1.971,1.183,3.705,5.105,4.415,9.987   c0.326,2.259,1.769,4.152,3.859,5.065c2.066,0.901,4.502,0.662,6.361-0.628l1.532-1.066c2.321-1.615,3.706-4.268,3.706-7.096   v-31.312c3.155,0.62,5.603,1.104,7.096,1.402c0.78,0.155,1.569,0.232,2.357,0.232c1.432,0,2.858-0.255,4.215-0.759l179.532-66.759   c0.028,0.008,0.056,0.019,0.085,0.025c12.535,3.043,12.13,24.271,12.121,24.635c-0.103,3.307,2.493,6.074,5.802,6.182   c0.066,0.002,0.133,0.003,0.199,0.003c3.223,0,5.888-2.56,5.993-5.805c0.032-1.002,0.479-19.726-9.99-30.324l33.314-12.388   c2.518-0.937,4.105-3.43,3.89-6.106S466.771,274.862,464.136,274.342z M220.63,364.566h-0.007l0.008-0.003L220.63,364.566z    M43.897,329.4c3.174-32.602,6.936-44.576,8.775-48.707l65.427-23.197l90.376,24.298c1.395,0.899,2.591,2.203,2.648,2.683   l1.209,72.551l-30.383,11.603l-0.203,0.077l-0.199,0.087c-0.586,0.253-5.896,2.593-11.685,6.623   c-5.636,3.925-9.851,8.142-12.607,12.599c-1.033,1.672-2.588,2.957-4.424,3.655l-12.805,4.865   c-2.753,1.046-5.673,1.582-8.618,1.582H117.17h-6.957c-0.38,0-0.713,0.253-0.815,0.62c-0.202,0.728-0.69,1.341-1.354,1.701   c-0.664,0.358-1.444,0.435-2.164,0.207l-51.326-16.16c-0.546-0.172-0.949-0.642-1.036-1.207c-0.001-0.01-0.003-0.021-0.005-0.03   c0-0.003,0-0.005-0.001-0.008l-0.439-2.931c-0.226-1.504-1.195-2.795-2.579-3.431l-2.695-1.237l-5.361-2.464   c-0.913-0.419-1.48-1.351-1.436-2.354C41.293,364.286,42.152,347.318,43.897,329.4z M210.128,385.023   c-2.735-1.641-7.333-3.116-13.71-0.821l-16.914,7.668l-0.372,0.187c-16.729,9.188-19.316,39.362-19.587,53.401l-16.191,6.763   c-8.916,2.928-13.984,1.5-14.645,1.287l-0.38-0.179l-0.698-0.121c-50.947-8.847-75.136-23.685-81.681-28.299v-8.178l5.926,2.712   c0.404,0.184,0.879,0.116,1.215-0.172c0.338-0.289,0.475-0.748,0.355-1.176l-1.93-6.79c-0.093-0.324-0.323-0.59-0.63-0.728   l-4.936-2.21v-16.122c0.006,0.01,0.013,0.02,0.013,0.02l61.07,19.229c1.078,0.159,2.043,0.229,2.908,0.229   c6.225,0,7.227-3.605,7.227-3.605h20.529l25.988-9.875c2.598-11.955,21.829-20.271,21.829-20.271l27.826-10.626v20.28   C212.405,386.636,211.34,385.751,210.128,385.023z M233.783,359.041c-2.121-0.424-6.15-1.218-11.456-2.258l-0.772-46.395   l139.901-44.092l79.53,15.705L233.783,359.041z"></path><path fill="#fff" d="M53.071,334.197c11.165,5.051,33.058,13.166,69.269,19.658c1.636,0.293,3.206-0.769,3.541-2.396   l6.072-29.523c0.326-1.582-0.634-3.142-2.19-3.569c-10.678-2.931-49.592-13.671-69.898-20.05c-0.808-0.254-1.686-0.162-2.424,0.254   c-0.738,0.416-1.271,1.117-1.473,1.94c-1.629,6.66-3.897,17.773-4.692,30.706C51.198,332.486,51.912,333.673,53.071,334.197z"></path><path fill="#fff" d="M146.943,353.169l5.493-1.591c0,0,1.095-9.203,13.095-12.453l8.527-3.248   c1.188-0.453,1.973-1.592,1.973-2.863V310.05c0-0.976-0.465-1.893-1.251-2.47c-0.786-0.577-1.801-0.745-2.731-0.452l-25,7.862   c-1.214,0.382-2.065,1.475-2.139,2.744l-1.878,32.314c-0.058,0.993,0.371,1.952,1.148,2.572   C144.958,353.242,145.988,353.445,146.943,353.169z"></path><ellipse transform="matrix(0.2059 -0.9786 0.9786 0.2059 -271.1209 533.5201)" fill="#fff" cx="193.159" cy="433.807" rx="5.698" ry="3.727"></ellipse><path fill="#fff" d="M198.789,405.14c-9.682-2.036-20.219,9.101-23.539,24.882c-3.322,15.777,1.832,30.223,11.513,32.258   c9.678,2.037,20.217-9.103,23.537-24.879C213.621,421.618,208.468,407.178,198.789,405.14z M204.539,436.198   c-2.025,9.621-8.771,16.348-15.066,15.021c-6.297-1.323-9.76-10.2-7.732-19.822c2.025-9.623,8.771-16.351,15.066-15.023   S206.563,426.573,204.539,436.198z"></path><path fill="#fff" d="M104.144,426.071l-47.062-15.59c-0.395-0.132-0.828-0.037-1.133,0.245c-0.304,0.282-0.43,0.708-0.329,1.11   l2.347,9.374c0.093,0.375,0.371,0.676,0.736,0.801l43.021,14.707c0.185,0.063,0.387,0.045,0.557-0.052   c0.17-0.097,0.29-0.261,0.33-0.451l1.984-9.356C104.667,426.52,104.473,426.181,104.144,426.071z"></path><path fill="#fff" d="M133.875,434.391c0-0.3-0.127-0.587-0.349-0.787c-0.222-0.201-0.519-0.3-0.818-0.271   c-2.571,0.246-9.519,0.378-22.134-2.959c-0.274-0.073-0.567-0.032-0.812,0.112c-0.245,0.144-0.422,0.381-0.491,0.655l-1.739,6.899   c-0.045,0.177-0.017,0.365,0.079,0.521c0.095,0.157,0.248,0.269,0.426,0.31c3.34,0.784,18.225,4.125,24.929,3.145   c0.522-0.075,0.91-0.524,0.91-1.052h-0.001V434.391z"></path><ellipse transform="matrix(0.2061 -0.9785 0.9785 0.2061 -66.2356 638.8289)" fill="#fff" cx="360.568" cy="360.233" rx="5.391" ry="3.527"></ellipse><path fill="#fff" d="M365.928,333.141c-9.159-1.929-19.129,8.609-22.271,23.541c-3.145,14.928,1.732,28.594,10.893,30.521   c9.156,1.928,19.128-8.61,22.271-23.538C379.962,348.73,375.086,335.068,365.928,333.141z M371.368,362.525   c-1.916,9.104-8.299,15.468-14.255,14.213c-5.957-1.252-9.233-9.649-7.315-18.754c1.916-9.105,8.298-15.471,14.255-14.215   C370.01,345.023,373.284,353.42,371.368,362.525z"></path><ellipse transform="matrix(0.2059 -0.9786 0.9786 0.2059 -15.0211 667.457)" fill="#fff" cx="403.749" cy="342.984" rx="5.096" ry="3.334"></ellipse><path fill="#fff" d="M408.776,317.352c-8.661-1.822-18.084,8.142-21.056,22.256c-2.972,14.115,1.64,27.033,10.297,28.855   s18.084-8.143,21.056-22.254C422.044,332.092,417.435,319.174,408.776,317.352z M413.921,345.133   c-1.812,8.605-7.846,14.623-13.477,13.439c-5.635-1.187-8.731-9.127-6.918-17.732c1.812-8.609,7.846-14.625,13.477-13.439   C412.636,328.586,415.731,336.523,413.921,345.133z"></path><path fill="#fff" d="M327.373,349.539l-88.222,35.572c-3.073,1.239-4.56,4.735-3.321,7.809c0.942,2.338,3.191,3.758,5.566,3.758   c0.747,0,1.507-0.141,2.242-0.438l88.223-35.572c3.073-1.239,4.56-4.735,3.32-7.809S330.445,348.298,327.373,349.539z"></path></g></g><g id="SvgjsG1220" featurekey="XAPJzK-0" transform="matrix(2.060864085359488,0,0,2.060864085359488,67.93913616031466,-2.3033601226027987)" fill="#fff"><path d="M7.7 16.42 c0.04 0.68 -0.14 1.44 -0.52 2 c-0.18 0.26 -0.38 0.52 -0.64 0.74 c-0.16 0.12 -0.32 0.26 -0.5 0.36 s-0.38 0.18 -0.56 0.26 c-0.6 0.26 -1.32 0.28 -1.94 0.12 c-0.32 -0.08 -0.62 -0.2 -0.9 -0.38 c-0.26 -0.16 -0.54 -0.36 -0.74 -0.6 c-0.22 -0.24 -0.42 -0.5 -0.56 -0.8 c-0.08 -0.18 -0.18 -0.38 -0.24 -0.58 c-0.04 -0.2 -0.1 -0.72 -0.1 -0.92 c0 -0.6 2.24 -0.6 2.24 0 c0 0.5 0.78 1.84 1.98 0.64 c0.5 -0.72 0.04 -1.54 -0.4 -2.14 c-0.68 -0.84 -1.56 -1.48 -2.28 -2.28 c-0.42 -0.46 -0.84 -0.98 -1.1 -1.56 c-0.14 -0.32 -0.26 -0.64 -0.34 -1 c-0.3 -1.66 0.22 -4.62 3.84 -4.28 c1.82 0.18 2.62 1.74 2.62 2.8 c0 0.6 -2.28 0.6 -2.28 0 c0 -0.8 -2.26 -0.9 -1.98 0.86 c0.04 0.18 0.08 0.36 0.16 0.54 c0.12 0.26 0.26 0.48 0.42 0.7 c0.2 0.26 0.4 0.48 0.64 0.7 c0.88 0.86 1.88 1.64 2.52 2.74 c0.38 0.64 0.6 1.34 0.66 2.08 z M14.96 6.359999999999999 c0.22 -0.6 2.52 -0.42 2.1 0.58 c-0.92 2.2 -2.56 6.22 -2.5 6.12 l0 6.5 c0 0.6 -2.28 0.6 -2.28 0 l0 -6.5 l-2.52 -6.04 c-0.46 -1.1 1.82 -1.32 2.12 -0.58 l1.54 3.94 c0.42 -1.12 1.1 -2.82 1.54 -4.02 z M25.82 16.42 c0.04 0.68 -0.14 1.44 -0.52 2 c-0.18 0.26 -0.38 0.52 -0.64 0.74 c-0.16 0.12 -0.32 0.26 -0.5 0.36 s-0.38 0.18 -0.56 0.26 c-0.6 0.26 -1.32 0.28 -1.94 0.12 c-0.32 -0.08 -0.62 -0.2 -0.9 -0.38 c-0.26 -0.16 -0.54 -0.36 -0.74 -0.6 c-0.22 -0.24 -0.42 -0.5 -0.56 -0.8 c-0.08 -0.18 -0.18 -0.38 -0.24 -0.58 c-0.04 -0.2 -0.1 -0.72 -0.1 -0.92 c0 -0.6 2.24 -0.6 2.24 0 c0 0.5 0.78 1.84 1.98 0.64 c0.5 -0.72 0.04 -1.54 -0.4 -2.14 c-0.68 -0.84 -1.56 -1.48 -2.28 -2.28 c-0.42 -0.46 -0.84 -0.98 -1.1 -1.56 c-0.14 -0.32 -0.26 -0.64 -0.34 -1 c-0.3 -1.66 0.22 -4.62 3.84 -4.28 c1.82 0.18 2.62 1.74 2.62 2.8 c0 0.6 -2.28 0.6 -2.28 0 c0 -0.8 -2.26 -0.9 -1.98 0.86 c0.04 0.18 0.08 0.36 0.16 0.54 c0.12 0.26 0.26 0.48 0.42 0.7 c0.2 0.26 0.4 0.48 0.64 0.7 c0.88 0.86 1.88 1.64 2.52 2.74 c0.38 0.64 0.6 1.34 0.66 2.08 z M27.86 6 l7.96 0 c0.6 0 0.6 2.24 0 2.24 l-2.84 0.04 l0 11.28 c0 0.6 -2.28 0.6 -2.28 0 l0 -11.28 l-2.84 -0.04 c-0.6 0 -0.6 -2.24 0 -2.24 z M40.56 17.72 l2.86 0 c0.6 0 0.6 2.28 0 2.28 l-3.86 0 c-1.28 0 -1.28 0 -1.28 -1.08 l0 -11.84 c0 -1.08 0 -1.08 1.22 -1.1 l3.9 0.02 c0.6 0 0.6 2.28 0 2.28 l-2.84 0 l0 3.64 l2 0 c0.6 0 0.6 2.3 0 2.3 l-2 0 l0 3.5 z M58.08 6.76 l0 12.8 c0 0.6 -2.26 0.6 -2.26 0 l0 -6.64 c-2.32 6.46 -2.36 6.54 -2.4 6.62 c-0.26 0.6 -1.78 0.6 -2.04 0 c-0.04 -0.08 -0.08 -0.16 -2.42 -6.7 l0 6.72 c0 0.6 -2.28 0.6 -2.28 0 l0 -12.76 l0 -0.04 c0 -0.98 2.02 -0.94 2.22 -0.4 l3.5 9.2 l3.44 -9.2 c0.2 -0.54 2.24 -0.6 2.24 0.4 z M60.52 6 l7.96 0 c0.6 0 0.6 2.24 0 2.24 l-2.84 0.04 l0 11.28 c0 0.6 -2.28 0.6 -2.28 0 l0 -11.28 l-2.84 -0.04 c-0.6 0 -0.6 -2.24 0 -2.24 z M78.44000000000001 18.86 c0.42 1 -1.82 1.48 -2.08 0.88 l-0.12 -0.28 c-0.66 -1.58 -1.38 -3.38 -2.04 -4.98 l-0.98 0 l0 5.08 c0 0.6 -2.28 0.6 -2.28 0 l0 -12.3 c0 -0.94 0.02 -1.24 1.42 -1.26 l2.06 0 c0.72 0 1.52 0.02 2.14 0.42 c1.36 0.86 1.78 2.38 1.76 3.92 c-0.02 1.28 -0.2 2.56 -1.46 3.5 c-0.14 0.08 -0.26 0.16 -0.38 0.24 c0.64 1.52 1.34 3.26 1.96 4.78 z M73.22000000000001 12.2 l1.72 0 c0.92 0 1.06 -1.12 1.1 -1.44 c0.02 -0.22 0.02 -1.02 -0.02 -1.4 c-0.08 -0.74 -0.36 -1.12 -1.28 -1.12 l-1.52 0 l0 3.96 z M86.4 6.42 l2.08 12.7 c0.16 1 -2.1 1.1 -2.22 0.38 l-0.4 -2.4 l-2.34 0 l-0.4 2.4 c-0.1 0.6 -2.38 0.62 -2.22 -0.38 l2.1 -12.7 c0.1 -0.6 3.32 -0.54 3.4 0 z M85.48 14.84 l-0.78 -4.78 l-0.8 4.78 l1.58 0 z M96.02000000000001 13.6 l0 -7.18 c0 -0.6 2.2 -0.6 2.2 0 l0 12.74 c0 1 -1.92 1.02 -2.12 0.52 l-3 -7.36 l0 7.24 c0 0.6 -2.22 0.6 -2.22 0 l0 -12.5 c0 -1.56 1.9 -1.08 2.2 -0.48 z M107.32000000000001 16.42 c0.04 0.68 -0.14 1.44 -0.52 2 c-0.18 0.26 -0.38 0.52 -0.64 0.74 c-0.16 0.12 -0.32 0.26 -0.5 0.36 s-0.38 0.18 -0.56 0.26 c-0.6 0.26 -1.32 0.28 -1.94 0.12 c-0.32 -0.08 -0.62 -0.2 -0.9 -0.38 c-0.26 -0.16 -0.54 -0.36 -0.74 -0.6 c-0.22 -0.24 -0.42 -0.5 -0.56 -0.8 c-0.08 -0.18 -0.18 -0.38 -0.24 -0.58 c-0.04 -0.2 -0.1 -0.72 -0.1 -0.92 c0 -0.6 2.24 -0.6 2.24 0 c0 0.5 0.78 1.84 1.98 0.64 c0.5 -0.72 0.04 -1.54 -0.4 -2.14 c-0.68 -0.84 -1.56 -1.48 -2.28 -2.28 c-0.42 -0.46 -0.84 -0.98 -1.1 -1.56 c-0.14 -0.32 -0.26 -0.64 -0.34 -1 c-0.3 -1.66 0.22 -4.62 3.84 -4.28 c1.82 0.18 2.62 1.74 2.62 2.8 c0 0.6 -2.28 0.6 -2.28 0 c0 -0.8 -2.26 -0.9 -1.98 0.86 c0.04 0.18 0.08 0.36 0.16 0.54 c0.12 0.26 0.26 0.48 0.42 0.7 c0.2 0.26 0.4 0.48 0.64 0.7 c0.88 0.86 1.88 1.64 2.52 2.74 c0.38 0.64 0.6 1.34 0.66 2.08 z M117.10000000000001 10.34 c-0.02 1.28 -0.2 2.56 -1.46 3.5 c-1.06 0.82 -2.38 0.64 -3.64 0.64 l0 5.08 c0 0.6 -2.28 0.6 -2.28 0 l0 -12.3 c0 -0.94 0.02 -1.24 1.42 -1.26 l2.06 0 c0.72 0 1.52 0.02 2.14 0.42 c1.36 0.86 1.78 2.38 1.76 3.92 z M114.82000000000001 10.76 c0.02 -0.22 0.02 -1.02 -0.02 -1.4 c-0.08 -0.74 -0.36 -1.12 -1.28 -1.12 l-1.52 0 l0 3.96 l1.72 0 c0.92 0 1.06 -1.12 1.1 -1.44 z M125.74000000000001 8.82 c0.06 0.22 0.02 8.34 -0.06 8.64 c-0.36 1.54 -1.44 2.54 -3.14 2.54 l-0.52 0 c-1.68 0 -2.76 -1 -3.14 -2.54 c-0.08 -0.3 -0.1 -8.42 -0.06 -8.64 c0.28 -1.68 1.32 -2.78 3.2 -2.82 l0.52 0 c1.9 0.04 2.92 1.14 3.2 2.82 z M121.72000000000001 17.6 c0.34 0.18 0.78 0.18 1.12 0 c0.58 -0.28 0.68 -0.98 0.7 -1.46 l0 -6.26 c0 -0.48 -0.12 -1.18 -0.7 -1.46 c-0.34 -0.18 -0.78 -0.18 -1.12 0 c-0.58 0.28 -0.7 0.98 -0.7 1.46 l0 6.26 c0.02 0.48 0.12 1.18 0.7 1.46 z M135.66000000000003 18.86 c0.42 1 -1.82 1.48 -2.08 0.88 l-0.12 -0.28 c-0.66 -1.58 -1.38 -3.38 -2.04 -4.98 l-0.98 0 l0 5.08 c0 0.6 -2.28 0.6 -2.28 0 l0 -12.3 c0 -0.94 0.02 -1.24 1.42 -1.26 l2.06 0 c0.72 0 1.52 0.02 2.14 0.42 c1.36 0.86 1.78 2.38 1.76 3.92 c-0.02 1.28 -0.2 2.56 -1.46 3.5 c-0.14 0.08 -0.26 0.16 -0.38 0.24 c0.64 1.52 1.34 3.26 1.96 4.78 z M130.44000000000003 12.2 l1.72 0 c0.92 0 1.06 -1.12 1.1 -1.44 c0.02 -0.22 0.02 -1.02 -0.02 -1.4 c-0.08 -0.74 -0.36 -1.12 -1.28 -1.12 l-1.52 0 l0 3.96 z M138.16 6 l7.96 0 c0.6 0 0.6 2.24 0 2.24 l-2.84 0.04 l0 11.28 c0 0.6 -2.28 0.6 -2.28 0 l0 -11.28 l-2.84 -0.04 c-0.6 0 -0.6 -2.24 0 -2.24 z"></path></g></svg>